<svg width="32" height="33" viewBox="0 0 32 33" fill="none" xmlns="http://www.w3.org/2000/svg">
<path d="M16 28.8615C19.3948 28.8615 22.6505 27.513 25.051 25.1125C27.4514 22.712 28.8 19.4563 28.8 16.0615C28.8 12.6668 27.4514 9.41102 25.051 7.01056C22.6505 4.61009 19.3948 3.26152 16 3.26152C12.6052 3.26152 9.3495 4.61009 6.94903 7.01056C4.54857 9.41102 3.2 12.6668 3.2 16.0615C3.2 19.4563 4.54857 22.712 6.94903 25.1125C9.3495 27.513 12.6052 28.8615 16 28.8615ZM16 32.0615C7.1632 32.0615 0 24.8983 0 16.0615C0 7.22472 7.1632 0.0615234 16 0.0615234C24.8368 0.0615234 32 7.22472 32 16.0615C32 24.8983 24.8368 32.0615 16 32.0615Z" fill="#EB2F06"/>
</svg>
