<svg width="32" height="33" viewBox="0 0 32 33" fill="none" xmlns="http://www.w3.org/2000/svg">
<path d="M16 0.0615234C7.11111 0.0615234 0 7.17263 0 16.0615C0 24.9504 7.11111 32.0615 16 32.0615C24.8889 32.0615 32 24.9504 32 16.0615C32 7.17263 24.8889 0.0615234 16 0.0615234ZM16 12.506C17.9556 12.506 19.5556 14.106 19.5556 16.0615C19.5556 18.0171 17.9556 19.6171 16 19.6171C14.0444 19.6171 12.4444 18.0171 12.4444 16.0615C12.4444 14.106 14.0444 12.506 16 12.506ZM20.9778 8.95041C20.9778 7.70597 22.0444 6.81708 23.1111 6.81708C24.1778 6.81708 25.2444 7.88375 25.2444 8.95041C25.2444 10.0171 24.3556 11.0837 23.1111 11.0837C21.8667 11.0837 20.9778 10.1949 20.9778 8.95041ZM16 28.506C9.06667 28.506 3.55556 22.9949 3.55556 16.0615H8.88889C8.88889 19.9726 12.0889 23.1726 16 23.1726C19.9111 23.1726 23.1111 19.9726 23.1111 16.0615H28.4444C28.4444 22.9949 22.9333 28.506 16 28.506Z" fill="#EB2F06"/>
</svg>
