<svg width="16" height="14" viewBox="0 0 16 14" fill="none" xmlns="http://www.w3.org/2000/svg">
<path d="M16 2.17684C15.4112 2.43284 14.7792 2.60884 14.1152 2.68564C14.7936 2.28564 15.312 1.65204 15.5584 0.898437C14.9119 1.27518 14.2066 1.54023 13.472 1.68244C13.163 1.35855 12.7913 1.10101 12.3795 0.925506C11.9677 0.750003 11.5244 0.660222 11.0768 0.661638C9.264 0.661638 7.7952 2.10964 7.7952 3.89364C7.7952 4.14644 7.824 4.39284 7.88 4.62964C6.57972 4.56789 5.30659 4.23579 4.14184 3.65451C2.97708 3.07324 1.94628 2.25555 1.1152 1.25364C0.823301 1.745 0.669616 2.30611 0.6704 2.87764C0.6704 3.99764 1.2512 4.98964 2.1312 5.56724C1.61031 5.5509 1.10058 5.41223 0.6432 5.16244V5.20244C0.648143 5.95357 0.91328 6.67978 1.39347 7.2574C1.87365 7.83503 2.53921 8.22836 3.2768 8.37044C2.79257 8.49848 2.28591 8.51706 1.7936 8.42484C2.0082 9.07103 2.41868 9.63437 2.96804 10.0366C3.5174 10.4389 4.17837 10.6601 4.8592 10.6696C3.69114 11.5697 2.25702 12.056 0.7824 12.052C0.5184 12.052 0.2576 12.036 0 12.0072C1.50475 12.9597 3.24954 13.4642 5.0304 13.4616C11.0688 13.4616 14.3696 8.53684 14.3696 4.26484L14.3584 3.84564C15.0021 3.39329 15.5583 2.82785 16 2.17684Z" fill="#EB2F06"/>
</svg>
