<svg width="28" height="24" viewBox="0 0 28 24" fill="none" xmlns="http://www.w3.org/2000/svg">
<path d="M0.0494385 1.09908C2.64345 3.03226 8.69675 6.73753 11.5236 8.34851V23.1159L1.54598 16.4034L0.0494385 1.09908Z" fill="#ECF0F1"/>
<path d="M12.5001 23.1159V8.34851C15.0941 7.05972 21.6013 2.66648 24.5944 0.518503C25.5421 0.242784 25.5729 1.09227 25.3234 1.53976L20.3609 4.97349C20.1279 5.8133 20.518 6.11657 21.1085 6.01742L23.5958 4.35623C24.4446 4.35623 24.4312 5.14848 24.2649 5.50647L18.0834 9.69895C17.7139 10.6772 18.5098 10.8634 18.8423 10.7739L26.2222 5.75376C27.1709 5.67851 27.0875 6.41351 26.9212 6.861L19.2551 12.1075C18.7425 12.9562 19.5613 13.4292 19.9908 13.139L24.7424 9.9595C25.673 9.78499 25.633 10.602 25.4907 11.0335L18.333 15.9232C17.8837 16.7402 18.5927 17.2884 19.092 16.9659L23.8555 13.698C24.8041 13.698 24.7842 14.5042 24.5445 14.8805L12.5001 23.1159Z" fill="#ECF0F1"/>
</svg>
